<?xml version="1.0"?>
<svg xmlns="http://www.w3.org/2000/svg" version="1" viewBox="0 0 24 24" fill="#000000">
    <path style="text-indent:0;text-align:start;line-height:normal;text-transform:none;block-progression:tb;-inkscape-font-specification:Bitstream Vera Sans" d="M 8 0 L 7.1875 2.1875 L 5 3 L 7.1875 3.8125 L 8 6 L 8.8125 3.8125 L 11 3 L 8.8125 2.1875 L 8 0 z M 3 6 L 2.1875 8.1875 L 0 9 L 2.1875 9.8125 L 3 12 L 3.8125 9.8125 L 6 9 L 3.8125 8.1875 L 3 6 z M 15 6 C 10.054545 6 6 10.054545 6 15 C 6 19.945455 10.054545 24 15 24 C 19.707937 24 23.551708 20.407498 24 15.8125 L 24.125 14.34375 L 22.71875 14.75 C 22.079223 14.932722 21.604762 15 21 15 C 18.245455 15 16 12.754545 16 10 C 16 9.0818182 16.25775 8.2735496 16.6875 7.5 L 17.5 6 L 15.8125 6 L 15 6 z M 14.5 8.09375 C 14.312298 8.7216431 14 9.3028374 14 10 C 14 13.845455 17.154545 17 21 17 C 21.217851 17 21.41617 16.92392 21.625 16.90625 C 20.757385 19.831243 18.213241 22 15 22 C 11.145455 22 8 18.854545 8 15 C 8 11.321993 10.888848 8.3638014 14.5 8.09375 z" overflow="visible" enable-background="accumulate" font-family="Bitstream Vera Sans"/>
</svg>
