<?xml version="1.0"?>
<svg xmlns="http://www.w3.org/2000/svg" viewBox="0 0 64 64" fill="ffff00">
    <path d="M 34 4 C 30.64 4 27.310625 4.8509375 24.390625 6.4609375 C 20.278625 8.7269375 17.098391 12.396422 15.400391 16.732422 C 15.367391 16.785422 15.324781 16.829625 15.300781 16.890625 C 15.119781 17.365625 14.969172 17.848984 14.826172 18.333984 C 7.3541719 19.828984 2 26.315 2 34 C 2 36.03 2.3800781 37.979531 3.0800781 39.769531 C 1.0300781 41.869531 -0.15046875 44.779375 0.01953125 47.859375 C 0.32953125 53.549375 5.1595312 58 11.019531 58 L 31.830078 58 C 36.040078 58 39.580469 54.679844 39.730469 50.589844 C 39.740469 50.389844 39.740469 50.19 39.730469 50 L 52 50 C 58.62 50 64 44.62 64 38 C 64 32.499 60.23675 27.794828 55.09375 26.423828 C 55.05975 26.410828 55.034047 26.386953 54.998047 26.376953 C 54.628047 26.281953 54.248141 26.217203 53.869141 26.158203 C 53.959141 25.399203 54 24.69 54 24 C 54 12.97 45.03 4 34 4 z M 34 6 C 43.93 6 52 14.07 52 24 C 52 24.628 51.942422 25.304625 51.857422 26.015625 C 50.989422 26.025625 50.12125 26.115547 49.28125 26.310547 C 48.74325 26.435547 48.409203 26.971766 48.533203 27.509766 C 48.657203 28.047766 49.197422 28.383766 49.732422 28.259766 C 50.700422 28.036766 51.708078 27.975922 52.705078 28.044922 C 57.918078 28.401922 62 32.772 62 38 C 62 43.51 57.51 48 52 48 L 39.369141 48 C 38.929141 46.612 38.093 45.393891 37 44.462891 L 37 43 C 37 42.448 36.552 42 36 42 C 35.448 42 35 42.448 35 43 L 35 43.234375 C 34.954 43.215375 34.908328 43.193781 34.861328 43.175781 C 34.813328 43.147781 34.776656 43.108844 34.722656 43.089844 C 34.345656 42.949844 33.953594 42.850484 33.558594 42.771484 C 33.688594 41.651484 33.679297 40.510859 33.529297 39.380859 C 32.749297 33.480859 28.079688 28.851328 22.179688 28.111328 C 16.227688 27.352328 10.659047 30.624094 8.3730469 35.996094 C 8.3640469 36.015094 8.3478438 36.027875 8.3398438 36.046875 C 8.2688438 36.213875 8.2182969 36.385687 8.1542969 36.554688 C 8.1142969 36.661687 8.0672969 36.761141 8.0292969 36.869141 C 6.8192969 37.179141 5.6989844 37.700625 4.7089844 38.390625 C 4.2499844 37.010625 4 35.53 4 34 C 4 27.593 8.2565938 22.152625 14.308594 20.515625 C 14.107594 21.659625 14 22.823 14 24 C 14 24.552 14.448 25 15 25 C 15.552 25 16 24.552 16 24 C 16 22.473 16.202172 20.973625 16.576172 19.515625 C 16.582172 19.496625 16.594609 19.480937 16.599609 19.460938 C 17.839609 14.690938 21.029609 10.600703 25.349609 8.2207031 C 27.979609 6.7707031 30.97 6 34 6 z M 34.517578 8.8535156 C 31.767937 8.7655312 28.986516 9.4026406 26.572266 10.712891 C 26.087266 10.976891 25.905922 11.583359 26.169922 12.068359 C 26.350922 12.402359 26.695781 12.591797 27.050781 12.591797 C 27.211781 12.591797 27.374391 12.552703 27.525391 12.470703 C 30.329391 10.948703 33.709266 10.473625 36.822266 11.140625 C 37.366266 11.262625 37.893766 10.911094 38.009766 10.371094 C 38.124766 9.8320938 37.782187 9.3015469 37.242188 9.1855469 C 36.347687 8.9935469 35.434125 8.8828438 34.517578 8.8535156 z M 40.884766 10.542969 C 40.496547 10.507766 40.107109 10.704312 39.912109 11.070312 C 39.652109 11.557313 39.836219 12.163828 40.324219 12.423828 C 41.076219 12.824828 41.796844 13.302797 42.464844 13.841797 C 42.649844 13.991797 42.870797 14.064453 43.091797 14.064453 C 43.383797 14.064453 43.671141 13.937359 43.869141 13.693359 C 44.217141 13.264359 44.151656 12.634109 43.722656 12.287109 C 42.955656 11.667109 42.129625 11.119203 41.265625 10.658203 C 41.143625 10.592953 41.014172 10.554703 40.884766 10.542969 z M 20.5 30 C 20.97 30 21.449688 30.029844 21.929688 30.089844 C 26.849688 30.709844 30.900781 34.720625 31.550781 39.640625 C 31.684781 40.647625 31.683641 41.647813 31.556641 42.632812 C 31.272641 42.650813 30.988984 42.675609 30.708984 42.724609 C 30.164984 42.819609 29.800484 43.336859 29.896484 43.880859 C 29.992484 44.424859 30.510687 44.791359 31.054688 44.693359 C 31.477687 44.619359 31.910797 44.603953 32.341797 44.626953 C 32.344797 44.626953 32.346609 44.629859 32.349609 44.630859 C 33.415609 44.688859 34.398563 45.045375 35.226562 45.609375 C 35.335563 45.747375 35.469719 45.860781 35.636719 45.925781 C 36.315719 46.485781 36.870469 47.188047 37.230469 47.998047 C 37.510469 48.618047 37.680937 49.288047 37.710938 49.998047 C 37.740938 50.168047 37.740469 50.339531 37.730469 50.519531 C 37.620469 53.540531 34.980078 56 31.830078 56 L 11.019531 56 C 6.2195313 56 2.2697656 52.38 2.0097656 47.75 C 1.8897656 45.51 2.65 43.380469 4 41.730469 C 4.43 41.190469 4.9302344 40.709062 5.4902344 40.289062 C 6.0882344 39.827062 6.7576562 39.455062 7.4726562 39.164062 C 7.3716563 39.825063 7.3046875 40.494828 7.3046875 41.173828 C 7.3046875 41.725828 7.7526875 42.173828 8.3046875 42.173828 C 8.8566875 42.173828 9.3046875 41.725828 9.3046875 41.173828 C 9.3046875 40.091828 9.4626719 39.035625 9.7636719 38.015625 C 9.7646719 38.010625 9.7675313 38.005 9.7695312 38 C 9.8385313 37.765 9.9228594 37.537547 10.005859 37.310547 C 10.037859 37.223547 10.066562 37.134828 10.101562 37.048828 C 11.787563 32.774828 15.903 30 20.5 30 z M 41 42 C 40.448 42 40 42.448 40 43 L 40 45 C 40 45.552 40.448 46 41 46 C 41.552 46 42 45.552 42 45 L 42 43 C 42 42.448 41.552 42 41 42 z M 46 42 C 45.448 42 45 42.448 45 43 L 45 45 C 45 45.552 45.448 46 46 46 C 46.552 46 47 45.552 47 45 L 47 43 C 47 42.448 46.552 42 46 42 z M 51 42 C 50.448 42 50 42.448 50 43 L 50 45 C 50 45.552 50.448 46 51 46 C 51.552 46 52 45.552 52 45 L 52 43 C 52 42.448 51.552 42 51 42 z M 56 42 C 55.448 42 55 42.448 55 43 L 55 45 C 55 45.552 55.448 46 56 46 C 56.552 46 57 45.552 57 45 L 57 43 C 57 42.448 56.552 42 56 42 z M 8 50 C 7.448 50 7 50.448 7 51 L 7 53 C 7 53.552 7.448 54 8 54 C 8.552 54 9 53.552 9 53 L 9 51 C 9 50.448 8.552 50 8 50 z M 13 50 C 12.448 50 12 50.448 12 51 L 12 53 C 12 53.552 12.448 54 13 54 C 13.552 54 14 53.552 14 53 L 14 51 C 14 50.448 13.552 50 13 50 z M 18 50 C 17.448 50 17 50.448 17 51 L 17 53 C 17 53.552 17.448 54 18 54 C 18.552 54 19 53.552 19 53 L 19 51 C 19 50.448 18.552 50 18 50 z M 23 50 C 22.448 50 22 50.448 22 51 L 22 53 C 22 53.552 22.448 54 23 54 C 23.552 54 24 53.552 24 53 L 24 51 C 24 50.448 23.552 50 23 50 z M 28 50 C 27.448 50 27 50.448 27 51 L 27 53 C 27 53.552 27.448 54 28 54 C 28.552 54 29 53.552 29 53 L 29 51 C 29 50.448 28.552 50 28 50 z M 33 50 C 32.448 50 32 50.448 32 51 L 32 53 C 32 53.552 32.448 54 33 54 C 33.552 54 34 53.552 34 53 L 34 51 C 34 50.448 33.552 50 33 50 z"/>
</svg>
