<?xml version="1.0"?>
<svg xmlns="http://www.w3.org/2000/svg" viewBox="0 0 50 50" fill="ffff00">
    <path d="M41.098,39h-7.115v-2h7.115c0.269,0,0.535-0.015,0.796-0.045l0.228,1.987C41.785,38.98,41.444,39,41.098,39z M30.976,39 h-8.018v-2h8.018V39z M19.952,39h-8.023v-2h8.023V39z M8.832,38.963c-2.994-0.257-5.741-1.933-7.348-4.483l1.692-1.066 c1.275,2.024,3.454,3.354,5.827,3.558L8.832,38.963z M45.327,37.934l-0.951-1.76c2.11-1.141,3.46-3.247,3.61-5.633l1.996,0.125 C49.789,33.746,48.048,36.462,45.327,37.934z M0.222,31.398C0.075,30.724,0,30.028,0,29.331c0-2.303,0.825-4.533,2.323-6.28 l1.519,1.302C2.654,25.737,2,27.505,2,29.331c0,0.554,0.059,1.106,0.176,1.641L0.222,31.398z M47.661,27.956 c-0.733-2.245-2.61-3.991-4.9-4.557l0.479-1.941c2.955,0.73,5.377,2.982,6.322,5.877L47.661,27.956z M40.047,22.078 c0.065-0.527,0.096-0.966,0.096-1.382c0-1.982-0.527-3.929-1.523-5.63l1.726-1.011c1.176,2.006,1.703,4.305,1.797,6.641 C41.473,21.56,40.047,22.078,40.047,22.078z M5.879,22.671l-0.99-1.737c0.471-0.269,0.965-0.497,1.475-0.683 c0.141-2.029,1.171-3.926,2.815-5.148l1.192,1.605c-1.287,0.956-2.024,2.422-2.024,4.022l0.04,1.004l-0.76,0.21 C7.017,22.114,6.429,22.358,5.879,22.671z M18.004,18.3l-1.104-1.106c-1.114-1.116-2.726-1.634-4.241-1.422l-0.273-1.981 c1.654-0.229,3.424,0.159,4.828,1.088c0.187-0.377,0.392-0.747,0.614-1.104l1.699,1.054c-0.393,0.634-0.723,1.31-0.98,2.006 L18.004,18.3z M36.95,12.885c-1.724-1.757-4.011-2.907-6.438-3.237l0.27-1.981c2.865,0.39,5.563,1.746,7.597,3.817L36.95,12.885z M21.249,12.687l-1.393-1.436c2.084-2.023,4.816-3.312,7.69-3.627l0.218,1.988C25.33,9.88,23.016,10.972,21.249,12.687z"/>
</svg>
