<?xml version="1.0"?>
<svg xmlns="http://www.w3.org/2000/svg" version="1" viewBox="0 0 24 24" fill="#000000">
    <path style="text-indent:0;text-align:start;line-height:normal;text-transform:none;block-progression:tb;-inkscape-font-specification:Bitstream Vera Sans" d="M 11 2 C 7.4064738 2 4.3818926 4.3957212 3.40625 7.625 C 1.3987557 8.6547295 0 10.654193 0 13 C 0 16.32381 2.6761905 19 6 19 L 6 17 C 3.7238095 17 2 15.27619 2 13 C 2 11.312698 3.0378272 9.8738754 4.59375 9.21875 L 5.0625 9.03125 L 5.1875 8.53125 C 5.779113 5.9957658 8.1646465 4 11 4 C 13.7625 4 15.971089 5.7714244 16.75 8.28125 L 16.96875 9 L 17.6875 9 L 18 9 C 20.27619 9 22 10.72381 22 13 C 22 15.27619 20.27619 17 18 17 L 18 19 C 21.32381 19 24 16.32381 24 13 C 24 9.7976374 21.497907 7.2483127 18.34375 7.0625 C 17.139865 4.1309484 14.377659 2 11 2 z M 11 11 L 11 21 L 13 21 L 13 11 L 11 11 z M 7 13 L 7 23 L 9 23 L 9 13 L 7 13 z M 15 13 L 15 23 L 17 23 L 17 13 L 15 13 z" overflow="visible" enable-background="accumulate" font-family="Bitstream Vera Sans"/>
</svg>
