<?xml version="1.0"?>
<svg xmlns="http://www.w3.org/2000/svg" viewBox="0 0 50 50" fill="000000">
    <path style="text-indent:0;text-align:start;line-height:normal;text-transform:none;block-progression:tb;-inkscape-font-specification:Sans" d="M 26 5 C 21.889245 5 18.439278 7.535173 16.90625 11.09375 C 16.605157 11.061471 16.313204 11 16 11 C 11.792399 11 8.3201767 13.927184 7.34375 17.84375 C 4.2109176 19.252591 2 22.351716 2 26 C 2 30.958516 6.0414839 35 11 35 L 16.125 35 L 15.0625 37.625 L 14.53125 39 L 16 39 L 20.5625 39 L 18.0625 45.65625 L 16.9375 48.625 L 19.5625 46.8125 L 32.5625 37.90625 L 33 37.59375 L 33 37.0625 L 33 37 L 33 36 L 32 36 L 28.71875 36 L 29.28125 35 L 39 35 C 43.958516 35 48 30.958516 48 26 C 48 22.417873 45.853081 19.382788 42.8125 17.9375 C 42.292866 13.70946 38.911525 10.434886 34.625 10.125 C 32.907074 7.0957981 29.724678 5 26 5 z M 26 7 C 29.147869 7 31.846681 8.8041378 33.15625 11.4375 L 33.4375 12 L 34.0625 12 C 37.792519 12.02457 40.776746 14.940105 40.96875 18.625 L 41 19.28125 L 41.59375 19.5 C 44.165702 20.533678 46 23.047085 46 26 C 46 29.877484 42.877484 33 39 33 L 30.375 33 L 32.875 28.5 L 33.6875 27 L 32 27 L 20 27 L 19.3125 27 L 19.0625 27.625 L 16.90625 33 L 11 33 C 7.1225161 33 4 29.877484 4 26 C 4 23.008718 5.8724418 20.476389 8.5 19.46875 L 9.03125 19.28125 L 9.125 18.71875 C 9.7277102 15.466389 12.562619 13 16 13 C 16.43408 13 16.856843 13.04581 17.28125 13.125 L 18.15625 13.28125 L 18.40625 12.46875 C 19.468726 9.2999779 22.462242 7 26 7 z M 20.6875 29 L 30.28125 29 L 26.125 36.5 L 25.3125 38 L 27 38 L 28.90625 38 L 21.03125 43.40625 L 22.9375 38.34375 L 23.4375 37 L 22 37 L 17.5 37 L 20.6875 29 z" overflow="visible" font-family="Sans"/>
</svg>
