<?xml version="1.0"?>
<svg xmlns="http://www.w3.org/2000/svg" viewBox="0 0 26 26" fill="#ffff00">
    <path style="text-indent:0;text-align:start;line-height:normal;text-transform:none;block-progression:tb;-inkscape-font-specification:Bitstream Vera Sans" d="M 12.90625 -0.03125 A 1.0001 1.0001 0 0 0 12.78125 0 A 1.0001 1.0001 0 0 0 12 1 L 12 4 A 1.0001 1.0001 0 0 0 12.8125 5 C 11.501975 5.0307803 10.271424 5.3765003 9.1875 5.96875 A 1.0077822 1.0077822 0 0 0 9.375 4.71875 L 7.875 2.09375 A 1.0001 1.0001 0 0 0 6.84375 1.59375 A 1.0001 1.0001 0 0 0 6.125 3.09375 L 7.625 5.71875 A 1.0077822 1.0077822 0 0 0 8.9375 6.125 C 7.8019244 6.8001106 6.8410557 7.7458486 6.15625 8.875 A 1.0077822 1.0077822 0 0 0 5.71875 7.625 L 3.09375 6.125 A 1.0001 1.0001 0 0 0 2.4375 6 A 1.0001 1.0001 0 0 0 2.09375 7.875 L 4.71875 9.375 A 1.0077822 1.0077822 0 0 0 5.9375 9.21875 C 5.4788283 10.068513 5.1871209 11.002871 5.0625 12 L 1 12 A 1.0001 1.0001 0 0 0 0.90625 12 A 1.001098 1.001098 0 0 0 0.8125 12 A 1.0043849 1.0043849 0 0 0 1 14 L 14 14 A 1.0001 1.0001 0 1 0 14 12 L 7.09375 12 C 7.5648879 9.1519568 10.013735 7 13 7 C 16.325562 7 19 9.674438 19 13 C 19 13.558605 18.9232 14.113653 18.78125 14.625 A 1.0045064 1.0045064 0 1 0 20.71875 15.15625 C 20.878881 14.579392 20.944395 13.96398 20.96875 13.34375 A 1.0043849 1.0043849 0 0 0 22 14 L 25 14 A 1.0001 1.0001 0 1 0 25 12 L 22 12 A 1.0001 1.0001 0 0 0 21.90625 12 A 1.001098 1.001098 0 0 0 21.8125 12 A 1.0043849 1.0043849 0 0 0 20.96875 12.59375 C 20.907049 11.365272 20.589316 10.210795 20.03125 9.1875 A 1.0077822 1.0077822 0 0 0 21.28125 9.375 L 23.90625 7.875 A 1.0001 1.0001 0 0 0 23.34375 5.96875 A 1.0001 1.0001 0 0 0 23.25 6 A 1.0001 1.0001 0 0 0 22.90625 6.125 L 20.28125 7.625 A 1.0077822 1.0077822 0 0 0 19.84375 8.84375 C 19.172078 7.744292 18.226741 6.8244624 17.125 6.15625 A 1.0077822 1.0077822 0 0 0 18.375 5.71875 L 19.875 3.09375 A 1.0001 1.0001 0 0 0 18.90625 1.59375 A 1.0001 1.0001 0 0 0 18.8125 1.59375 A 1.0001 1.0001 0 0 0 18.125 2.09375 L 16.625 4.71875 A 1.0077822 1.0077822 0 0 0 16.78125 5.9375 C 15.716333 5.3639091 14.500398 5.0351192 13.21875 5 A 1.0001 1.0001 0 0 0 14 4 L 14 1 A 1.0001 1.0001 0 0 0 12.90625 -0.03125 z M 3.71875 16 A 1.0043849 1.0043849 0 0 0 4 18 L 17 18 A 1.0001 1.0001 0 1 0 17 16 L 4 16 A 1.0001 1.0001 0 0 0 3.90625 16 A 1.001098 1.001098 0 0 0 3.8125 16 A 1.0043849 1.0043849 0 0 0 3.71875 16 z M 20.625 16.5 A 1.0001 1.0001 0 0 0 20.28125 18.375 L 22.90625 19.875 A 1.0077822 1.0077822 0 0 0 23.90625 18.125 L 21.28125 16.625 A 1.0001 1.0001 0 0 0 20.625 16.5 z M 17.34375 19.78125 A 1.0001 1.0001 0 0 0 16.625 21.28125 L 18.125 23.90625 A 1.0077822 1.0077822 0 0 0 19.875 22.90625 L 18.375 20.28125 A 1.0001 1.0001 0 0 0 17.34375 19.78125 z M 0.71875 20 A 1.0043849 1.0043849 0 0 0 1 22 L 14 22 A 1.0001 1.0001 0 1 0 14 20 L 1 20 A 1.0001 1.0001 0 0 0 0.90625 20 A 1.001098 1.001098 0 0 0 0.8125 20 A 1.0043849 1.0043849 0 0 0 0.71875 20 z M 12.90625 22.96875 A 1.0001 1.0001 0 0 0 12.78125 23 A 1.0001 1.0001 0 0 0 12 24 L 12 25 A 1.0001 1.0001 0 1 0 14 25 L 14 24 A 1.0001 1.0001 0 0 0 12.90625 22.96875 z"/>
</svg>
