<?xml version="1.0"?>
<svg xmlns="http://www.w3.org/2000/svg" version="1" viewBox="0 0 24 24" enable-background=>
    <path style="text-indent:0;text-align:start;line-height:normal;text-transform:none;block-progression:tb;-inkscape-font-specification:Bitstream Vera Sans" d="M 14 4 C 10.344741 4 7.1501932 6.5062865 6.28125 10 L 2 10 L 2 12 L 12 12 L 12 10 L 8.375 10 C 9.0796016 7.9776368 10.883634 6.5455992 13.03125 6.1875 C 13.12433 9.9875289 15.939343 13.098947 19.59375 13.75 C 18.8264 16.19638 16.673555 18 14 18 L 2 18 L 2 20 L 14 20 C 17.995238 20 21.304696 17.034315 21.875 13.15625 L 22.0625 12 L 20.90625 12 C 17.667654 12 15 9.2561404 15 6 C 15 5.7 15.046827 5.3595178 15.0625 5.3125 L 15.5 4 L 14.09375 4 L 14 4 z M 4 14 L 4 16 L 12 16 L 12 14 L 4 14 z" overflow="visible" enable-background="accumulate" font-family="Bitstream Vera Sans"/>
</svg>
